<?xml version="1.0" encoding="UTF-8"?>
<svg width="120px" height="24px" viewBox="0 0 120 24" version="1.1" xmlns="http://www.w3.org/2000/svg" xmlns:xlink="http://www.w3.org/1999/xlink">
    <!-- Generator: Sketch 49.2 (51160) - http://www.bohemiancoding.com/sketch -->
    <title>parimatch.ru-logo</title>
    <desc>Created with Sketch.</desc>
    <defs>
        <linearGradient x1="100%" y1="50%" x2="0%" y2="50%" id="linearGradient-1">
            <stop stop-color="#F9AE00" offset="0%"></stop>
            <stop stop-color="#FDD504" offset="100%"></stop>
        </linearGradient>
    </defs>
    <g id="pari-widgets" stroke="none" stroke-width="1" fill="none" fill-rule="evenodd">
        <g id="parimatch.ru-logo">
            <path d="M5.26933067,4.90323582 L5.66421578,4.90323582 C6.36611389,4.90323582 7.12771229,4.78419104 7.28715285,3.89810149 C7.43448551,3.07983284 6.7434965,2.99135522 6.08583417,2.99135522 L5.70557443,2.99135522 L5.26933067,4.90323582 Z M2.32243756,0.370937313 C2.37230769,0.153862687 2.56627373,-4.7761194e-05 2.78973027,-4.7761194e-05 L6.8382018,-4.7761194e-05 C9.41130869,-4.7761194e-05 11.1073726,1.31099701 10.6833566,4.03553433 C10.3178422,6.27923582 8.69478521,7.67792239 6.45818182,7.67792239 L4.63372627,7.67792239 L3.96923077,10.6124896 C3.91996004,10.8302806 3.72563437,10.9850269 3.50157842,10.9850269 L0.482157842,10.9850269 C0.174065934,10.9850269 -0.0540659341,10.6997731 0.0147452547,10.4007881 L2.32243756,0.370937313 Z M22.7063257,0.373528358 C22.7561958,0.156453731 22.950042,0.00266268657 23.1736184,0.00266268657 L27.0975345,0.00266268657 C29.592,-0.0638447761 31.6968551,1.09722985 31.2584535,3.86487164 C30.9953167,5.52517015 29.8950569,6.16218507 28.3307413,6.65746866 C28.7865255,6.87788657 29.5017303,9.24063284 29.8231289,10.3789015 C29.9092028,10.6834985 29.6789131,10.984991 29.3612308,10.984991 L26.4501818,10.984991 C26.2257662,10.984991 26.0315604,10.830603 25.9825295,10.6125731 C25.7790929,9.71143881 25.2658861,7.48660299 25.152,7.48099104 C25.078993,7.47740896 25.078993,7.48099104 25.078993,7.48099104 L24.3549171,10.6144836 C24.3048072,10.8313194 24.1110809,10.984991 23.8877443,10.984991 L20.866046,10.984991 C20.557954,10.984991 20.3297023,10.6998567 20.3986334,10.4006328 L22.7063257,0.373528358 Z M25.6659261,4.84743881 L25.9438082,4.84743881 C26.7255465,4.88361791 27.5312607,4.69854328 27.6824296,3.88624478 C27.838993,3.04505075 27.2849071,2.93054328 26.4483836,2.93054328 L26.1105614,2.93054328 L25.6659261,4.84743881 Z M11.7957842,10.9850149 L8.90007992,10.9850149 C8.54103896,10.9850149 8.30931069,10.6066269 8.47366633,10.2887761 L13.6581219,0.258925373 C13.7404795,0.099880597 13.904955,-5.97014925e-05 14.0845355,-5.97014925e-05 L17.4584416,-5.97014925e-05 C17.6976024,-5.97014925e-05 17.9003197,0.175462687 17.9332867,0.411402985 L19.3415185,10.4412537 C19.3819181,10.7285373 19.1578621,10.9850149 18.8665534,10.9850149 L15.9491508,10.9850149 C15.6942857,10.9850149 15.4838961,10.7863284 15.4703497,10.5328358 L15.4213187,9.61486567 L12.6939261,9.61307463 L12.2376623,10.6927164 C12.1627373,10.8699104 11.9885514,10.9850149 11.7957842,10.9850149 Z M15.2821379,7.00579104 C15.2821379,7.00579104 15.2104496,5.27349254 15.1231768,4.02740299 L15.0536464,4.03062687 L13.7818382,7.00579104 L15.2821379,7.00579104 Z M33.5877363,-4.7761194e-05 L36.6096743,-4.7761194e-05 C36.9177662,-4.7761194e-05 37.146018,0.285086567 37.0770869,0.584191045 L34.7696344,10.6140418 C34.7196444,10.8311164 34.5257982,10.9850269 34.3022218,10.9850269 L31.280044,10.9850269 C30.9720719,10.9850269 30.7438202,10.6997731 30.8127512,10.4006687 L33.1204436,0.37081791 C33.1703137,0.153862687 33.3641598,-4.7761194e-05 33.5877363,-4.7761194e-05 Z" id="Combined-Shape" fill="#FFFFFF"></path>
            <path d="M65.8851189,19.7819701 C65.8851189,19.7819701 65.8134306,18.0495522 65.7261578,16.8035821 L65.6566274,16.8066866 L64.3848192,19.7819701 L65.8851189,19.7819701 Z M62.3987652,23.7610746 L59.5030609,23.7610746 C59.1441399,23.7610746 58.9124116,23.382806 59.0766474,23.0649552 L64.2611029,13.0351045 C64.3434605,12.8760597 64.5079361,12.776 64.6875165,12.776 L68.0614226,12.776 C68.3005834,12.776 68.5033007,12.9516418 68.5362677,13.1874627 L69.9444995,23.2173134 C69.9848991,23.5047164 69.7608432,23.7610746 69.4696543,23.7610746 L66.5521319,23.7610746 C66.2972667,23.7610746 66.086997,23.5623881 66.0733307,23.3088955 L66.0242997,22.3909254 L63.2969071,22.3892537 L62.8406434,23.4688955 C62.7657183,23.6459701 62.5916523,23.7610746 62.3987652,23.7610746 Z M47.8705654,12.7760239 L51.3414545,12.7760239 C51.5964396,12.7760239 51.8069491,12.9750687 51.8202557,13.2288 L52.0981379,18.5410388 L52.1792967,18.5410388 C52.3906454,18.0621134 54.3871289,14.101994 54.9241918,13.0382328 C55.0055904,12.8770388 55.1707852,12.7760239 55.352044,12.7760239 L59.4561399,12.7760239 C59.7631528,12.7760239 59.991045,13.0594866 59.9241518,13.3578746 L57.6731628,23.3877254 C57.6241319,23.605994 57.4296863,23.7610985 57.2051508,23.7610985 L54.7287872,23.7610985 C54.4217742,23.7610985 54.1938821,23.4777552 54.2608951,23.1793672 L55.4824735,17.7350687 L55.3895664,17.7417552 C55.2786773,18.0574567 53.0851109,22.3836657 52.5183177,23.4999642 C52.4366793,23.6605612 52.2714845,23.7610985 52.0907053,23.7610985 L50.4435524,23.7610985 C50.1892867,23.7610985 49.9791369,23.5640836 49.9648711,23.3109493 C49.8895864,21.9776955 49.6764396,18.1178746 49.7121638,17.7348299 L48.4434725,23.3877254 C48.3945614,23.605994 48.2002358,23.7610985 47.9755804,23.7610985 L45.5978781,23.7610985 C45.2905055,23.7610985 45.0623736,23.4770388 45.1301059,23.1784119 L47.4027932,13.1485612 C47.4521838,12.9307701 47.6462697,12.7760239 47.8705654,12.7760239 Z M71.2972867,12.7760239 L79.5373666,12.7760239 C79.8450989,12.7760239 80.0731109,13.0604418 80.0051389,13.3593075 L79.4277962,15.8963821 C79.3781658,16.1141731 79.1836004,16.2686806 78.9593047,16.2683224 L76.809015,16.2647403 L75.1597043,23.3907104 C75.1094745,23.6076657 74.9157483,23.7610985 74.6922917,23.7610985 L71.6713127,23.7610985 C71.362981,23.7610985 71.1347293,23.4752478 71.2041399,23.1760239 L72.8082557,16.2647403 L70.7218621,16.2680836 C70.4141299,16.2685612 70.1855185,15.9840239 70.2533706,15.6850388 L70.8296344,13.1483224 C70.879025,12.9306507 71.0732308,12.7760239 71.2972867,12.7760239 Z M86.5474645,16.6057791 C86.380951,16.6057791 86.2333786,16.5151522 86.1396324,16.3780776 C86.0171149,16.1989731 85.7893427,16.0597493 85.3653267,16.059391 C84.2944376,16.0578388 83.4834486,17.9674507 83.4006114,18.6248836 C83.3055465,19.376406 83.3478641,20.3088239 84.2033287,20.4675104 C84.5843077,20.5380776 85.1071049,20.3101373 85.3957762,19.867391 C85.4831688,19.7330627 85.6342178,19.6533015 85.7950969,19.6535403 L88.9049071,19.6576 C89.21204,19.6579582 89.4376543,19.9408239 89.3724396,20.2395701 C89.1181738,21.403391 88.1278442,23.9159881 84.3112208,23.9977791 C80.4943576,24.0795701 78.8683037,21.7564657 79.2057662,18.642197 C79.5984935,15.0124657 82.0333786,12.3816597 86.0413307,12.544406 C89.8372148,12.6985552 90.2221499,15.0968836 90.2099221,16.1340179 C90.2066853,16.3957493 89.9929391,16.6057791 89.7301618,16.6057791 L86.5474645,16.6057791 Z M99.1099421,21.2103761 C98.927964,22.078794 99.1195325,22.9689433 99.635976,23.6798687 C99.5592527,23.7306149 99.4685035,23.7610627 99.3712807,23.7610627 L96.3536583,23.7610627 C96.0456863,23.7610627 95.8176743,23.4762866 95.8861259,23.1773015 L96.6273447,19.9442269 L94.1495425,19.9420776 L93.3694825,23.3885254 C93.3202118,23.6063164 93.126006,23.7610627 92.9017103,23.7610627 L89.8743776,23.7610627 C89.5664056,23.7610627 89.3382737,23.4762866 89.406965,23.1773015 L91.7059061,13.1474507 C91.7556563,12.9301373 91.9496224,12.7759881 92.1734386,12.7759881 L95.1745175,12.7759881 C95.4808112,12.7759881 95.7083437,13.0578985 95.643009,13.355809 L94.9571748,16.4774806 L97.4141179,16.4774806 L98.1856663,13.1463761 C98.2358961,12.9295403 98.4296224,12.7759881 98.6528392,12.7759881 L101.679932,12.7759881 C101.988144,12.7759881 102.216276,13.0613612 102.147345,13.3604657 L100.84161,19.0327045 C99.9775145,19.4354507 99.3151768,20.2306746 99.1099421,21.2103761 Z" id="Combined-Shape" fill="#FFFFFF"></path>
            <path d="M39.3831369,0 C39.1592008,0 38.964995,0.154268657 38.9154845,0.371820896 L36.6273327,10.4016716 C36.5592408,10.7004179 36.7872527,10.9850746 37.094985,10.9850746 L55.3910889,10.9850746 C55.615025,10.9850746 55.8091109,10.8306866 55.8586214,10.6132537 L58.1467732,0.583402985 C58.2148651,0.284537313 57.9868531,0 57.6792408,0 L39.3831369,0 Z" id="Clip-19" fill="url(#linearGradient-1)"></path>
            <path d="M26.8013586,12.776 C26.5775425,12.776 26.3834565,12.9303881 26.3337063,13.1478209 L24.0456743,23.177791 C23.9774625,23.4765373 24.2055944,23.7610746 24.5134466,23.7610746 L42.8093107,23.7610746 C43.0332468,23.7610746 43.2274525,23.606806 43.276963,23.3893731 L45.5652348,13.3595224 C45.6334466,13.0606567 45.4053147,12.776 45.0974625,12.776 L26.8013586,12.776 Z" id="Clip-22" fill="url(#linearGradient-1)"></path>
            <path d="M107.531053,19.7265791 L108.794829,19.7265791 C109.330693,19.7265791 109.805898,19.4949373 109.805898,18.880609 C109.805898,18.4476537 109.512551,18.2563701 108.865678,18.2563701 L107.844539,18.2563701 L107.531053,19.7265791 Z M109.310434,16.5947582 C110.634869,16.5947582 112.019964,16.7256239 112.019964,18.4476537 C112.019964,19.4747582 111.413371,20.3307582 110.351712,20.4616239 C111.019085,20.7436537 111.120144,21.2771463 111.110074,21.9620418 C111.100004,22.8482507 111.100004,22.6668776 111.100004,22.9085493 C111.100004,23.0628179 111.096887,23.2231761 111.110673,23.3812657 C111.128895,23.5883104 110.960583,23.7645493 110.752112,23.7645493 L109.340284,23.7645493 C109.148476,23.7645493 108.992392,23.6150567 108.980883,23.4244896 C108.978126,23.3804299 108.976807,23.3331463 108.976807,23.281206 C108.976807,22.9891463 109.007137,22.697206 109.007137,22.4051463 C109.007137,21.5491463 108.885818,21.2470567 107.965738,21.2470567 L107.197427,21.2470567 L106.731213,23.4794149 C106.696567,23.6455045 106.549475,23.7645493 106.379125,23.7645493 L104.931213,23.7645493 C104.702721,23.7645493 104.532132,23.5551164 104.579365,23.3325493 L105.94432,16.8791761 C105.979445,16.7134448 106.126178,16.5947582 106.296168,16.5947582 L109.310434,16.5947582 Z M119.126877,20.773803 C118.702382,22.8582209 117.772112,23.8754149 115.537906,23.8754149 C113.536028,23.8754149 112.44416,23.1199522 112.44416,21.7304597 C112.44416,21.4182209 112.46442,21.3377433 112.605878,20.6528478 L113.405119,16.8791164 C113.440124,16.7133851 113.586977,16.5948179 113.756967,16.5948179 L115.224659,16.5948179 C115.45351,16.5948179 115.62422,16.8049672 115.576388,17.0278925 L114.779544,20.743594 C114.739025,20.9348776 114.708815,21.1563701 114.708815,21.2873552 C114.708815,21.8210866 115.042442,22.1231761 115.638845,22.1231761 C116.558925,22.1231761 116.781542,21.2873552 116.943141,20.5523104 L117.741183,16.8773254 C117.776907,16.7124299 117.923401,16.5948179 118.092671,16.5948179 L119.545499,16.5948179 C119.773271,16.5948179 119.9435,16.8028179 119.897826,17.0249075 L119.126877,20.773803 Z" id="Combined-Shape" fill="#FFFFFF"></path>
            <path d="M102.129231,19.9401791 C101.25003,19.9401791 100.49011,20.5552239 100.292428,21.4193433 L100.281878,21.4650746 C100.040679,22.6493134 100.933307,23.7610746 102.129231,23.7610746 L102.19013,23.7610746 C103.084915,23.7610746 103.856464,23.1250149 104.037842,22.2380896 C104.28048,21.0522985 103.386174,19.9401791 102.19013,19.9401791 L102.129231,19.9401791 Z" id="Clip-32" fill="url(#linearGradient-1)"></path>
        </g>
    </g>
</svg>